<svg viewBox="0 0 24 24" xmlns="http://www.w3.org/2000/svg" class="ionicon-fill-none ionicon"><path fill-rule="evenodd" clip-rule="evenodd" d="M7.45455 3.81818C5.44624 3.81818 3.81818 5.44624 3.81818 7.45455V16.5455C3.81818 18.5538 5.44624 20.1818 7.45455 20.1818H16.5455C18.5538 20.1818 20.1818 18.5538 20.1818 16.5455V7.45455C20.1818 5.44624 18.5538 3.81818 16.5455 3.81818H7.45455ZM2 7.45455C2 4.44208 4.44208 2 7.45455 2H16.5455C19.5579 2 22 4.44208 22 7.45455V16.5455C22 19.5579 19.5579 22 16.5455 22H7.45455C4.44208 22 2 19.5579 2 16.5455V7.45455ZM12.4393 9.26295C11.8719 9.1788 11.2924 9.27573 10.7832 9.53993C10.274 9.80413 9.8611 10.2222 9.60319 10.7346C9.34529 11.247 9.25552 11.8276 9.34665 12.394C9.43779 12.9604 9.70519 13.4836 10.1108 13.8892C10.5164 14.2948 11.0396 14.5622 11.606 14.6534C12.1724 14.7445 12.753 14.6547 13.2654 14.3968C13.7778 14.1389 14.1959 13.726 14.4601 13.2168C14.7243 12.7076 14.8212 12.1281 14.7371 11.5607C14.6512 10.9819 14.3815 10.446 13.9678 10.0322C13.554 9.61849 13.0181 9.34878 12.4393 9.26295ZM9.94579 7.92607C10.7944 7.48573 11.7603 7.32419 12.706 7.46443C13.6707 7.60748 14.5638 8.057 15.2534 8.7466C15.943 9.43619 16.3925 10.3293 16.5356 11.294C16.6758 12.2397 16.5143 13.2056 16.0739 14.0542C15.6336 14.9029 14.9369 15.591 14.0829 16.0209C13.2289 16.4507 12.2611 16.6003 11.3172 16.4484C10.3732 16.2966 9.50121 15.8509 8.82517 15.1748C8.14912 14.4988 7.70346 13.6268 7.55156 12.6829C7.39967 11.7389 7.54929 10.7711 7.97913 9.91713C8.40897 9.06313 9.09715 8.36641 9.94579 7.92607ZM17 6.09091C16.4979 6.09091 16.0909 6.49792 16.0909 7C16.0909 7.50208 16.4979 7.90909 17 7.90909H17.0091C17.5112 7.90909 17.9182 7.50208 17.9182 7C17.9182 6.49792 17.5112 6.09091 17.0091 6.09091H17Z"/></svg>