<svg viewBox="0 0 24 24" xmlns="http://www.w3.org/2000/svg" class="ionicon-fill-none ionicon"><path fill-rule="evenodd" clip-rule="evenodd" d="M14.1046 4.3002C14.9786 3.96662 15.9339 3.9095 16.8415 4.13657C17.5631 4.31715 18.2269 4.67051 18.7772 5.16263C19.454 4.91386 20.0959 4.57719 20.6863 4.16074C20.9701 3.96052 21.3484 3.95737 21.6356 4.15284C21.9227 4.34831 22.0585 4.70139 21.9763 5.03889C21.6908 6.21098 21.1187 7.29133 20.314 8.18416C20.3264 8.31866 20.3328 8.45371 20.3333 8.58893L20.3333 8.59168C20.3333 13.6749 17.8859 17.4041 14.3707 19.2752C10.8758 21.1353 6.40912 21.1147 2.42871 18.9034C2.09137 18.716 1.92684 18.3215 2.03104 17.9499C2.13525 17.5784 2.48094 17.3269 2.86653 17.3423C4.2722 17.3982 5.6637 17.1187 6.929 16.5358C5.67638 15.7628 4.77458 14.8452 4.14762 13.8552C3.31126 12.5347 2.99554 11.1358 2.93844 9.87951C2.8815 8.62692 3.08048 7.4991 3.28964 6.69033C3.39473 6.28401 3.50376 5.95295 3.58781 5.72048C3.62988 5.60411 3.66583 5.51205 3.69211 5.44719C3.70525 5.41475 3.71599 5.38907 3.72387 5.37053L3.73352 5.34809L3.73663 5.34096L3.73775 5.33843L3.7382 5.33742C3.73839 5.33699 3.73856 5.33659 4.50007 5.67504L3.73856 5.33659C3.86049 5.06225 4.12055 4.8747 4.41935 4.84563C4.71815 4.81655 5.00949 4.95043 5.18203 5.19611C5.94497 6.2825 6.96475 7.16335 8.15055 7.7602C9.09375 8.23495 10.1187 8.51828 11.1665 8.59703C11.1603 7.67232 11.435 6.76724 11.9547 6.00175C12.4801 5.22775 13.2306 4.63379 14.1046 4.3002ZM4.83727 7.37803C4.6842 8.04583 4.56196 8.89271 4.60338 9.80383C4.65044 10.8392 4.90763 11.9403 5.55564 12.9635C6.2003 13.9814 7.26342 14.9727 9.00515 15.7468C9.28166 15.8697 9.46982 16.1328 9.49673 16.4342C9.52365 16.7356 9.38508 17.0278 9.13473 17.1978C8.20896 17.8262 7.19522 18.299 6.13347 18.6047C8.77526 19.2777 11.4225 18.9563 13.5876 17.8039C16.5304 16.2376 18.6662 13.0924 18.6666 8.59307C18.666 8.41299 18.6486 8.23336 18.6148 8.05648C18.5626 7.78326 18.6501 7.502 18.8482 7.30669C19.0338 7.12361 19.2057 6.92849 19.363 6.72295C19.1743 6.79257 18.9833 6.85651 18.7903 6.91464C18.4764 7.00914 18.1363 6.91089 17.9212 6.66356C17.5313 6.2153 17.0132 5.89758 16.4369 5.75338C15.8606 5.60918 15.2539 5.64546 14.6989 5.8573C14.1439 6.06914 13.6673 6.44632 13.3336 6.93784C13 7.42936 12.8253 8.01149 12.8333 8.60551L12.8334 8.61668H12.8333V9.45001C12.8333 9.90183 12.4733 10.2713 12.0216 10.2831C10.4198 10.3246 8.83253 9.96933 7.40123 9.24891C6.44659 8.76841 5.5811 8.13542 4.83727 7.37803Z"/></svg>